# xmcd CD database file
#
# Track frame offsets:
#	150
#	14977
#	27704
#	46756
#	68638
#	89199
#	103171
#	122020
#	139398
#	154224
#	180396
#	202300
#	220736
#	239440
#	249040
#	269746
#	286842
#	296022
#	319573
#
# Disc length: 4399 seconds
#
# Revision: 0
# Processed by: cddbd v1.5.2PL0 Copyright (c) Steve Scherf et al.
# Submitted via: CDex 1.70beta2
#
DISCID=2d112d13
DTITLE=George Higgs - Rainy Day
DYEAR=2006
DGENRE=Blues
TTITLE0=Wholesale Dealin' Poppa
TTITLE1=Stop Hanging Around
TTITLE2=Rainy day
TTITLE3=She's Gone But Not Forgotten
TTITLE4=I Can't Live Happy
TTITLE5=I Remember
TTITLE6=Coming back
TTITLE7=I Feel Superstitious
TTITLE8=Easy Riding Buggy
TTITLE9=Mean Old Lonesome Blues
TTITLE10=My Friend
TTITLE11=Highway 49
TTITLE12=One Kind Favor
TTITLE13=Flat Foot Suzie
TTITLE14=You Don't Want Me Baby
TTITLE15=Move On
TTITLE16=Diddy Wa Diddy
TTITLE17=Blues Came Falling Down
TTITLE18=Bogey street
EXTD=YEAR: 2006
EXTT0=
EXTT1=
EXTT2=
EXTT3=
EXTT4=
EXTT5=
EXTT6=
EXTT7=
EXTT8=
EXTT9=
EXTT10=
EXTT11=
EXTT12=
EXTT13=
EXTT14=
EXTT15=
EXTT16=
EXTT17=
EXTT18=
PLAYORDER=
